 <svg
      xmlns="http://www.w3.org/2000/svg"
      width="24"
      height="24"
      viewBox="0 0 24 24"
      fill="none"
    >
      <path
        fill-rule="evenodd"
        clip-rule="evenodd"
        d="M15.5283 15.9854C15.5428 17.0762 14.6777 17.9759 13.5873 18.0041H12.2932C11.2042 17.9805 10.3377 17.0833 10.3522 15.9941V8.65266H8.62685V18.0213H8.41118H7.11717C6.61281 18.0473 6.11984 17.8655 5.75309 17.5183C5.38634 17.1711 5.17783 16.6889 5.17614 16.1838V10.3694H3.45078V17.0897C3.37914 17.0981 3.30676 17.0981 3.23511 17.0897H1.9411C0.848597 17.0661 -0.0191887 16.1636 7.03164e-05 15.071V7.51393C0.032577 6.36031 0.779271 5.34866 1.87208 4.97765L3.2955 4.39966C3.75774 4.21239 4.28505 4.28904 4.67484 4.60016C4.94646 4.81696 5.12187 5.12412 5.17614 5.457V4.17536C5.17614 2.88997 6.04744 1.72536 7.11717 1.72536H8.41118C9.47983 1.74843 10.3335 2.61246 10.3522 3.67275V2.01867C10.3377 0.927945 11.2028 0.0282362 12.2932 0H13.5873C14.6777 0.0282362 15.5428 0.927945 15.5283 2.01867V2.99349C15.5283 1.88064 16.3651 1.47518 17.4003 1.76849L18.8323 2.37236C19.9348 2.76052 20.6808 3.79186 20.7043 4.9604V14.3205C20.7236 15.413 19.8558 16.3155 18.7633 16.3391H17.4693C17.3975 16.3439 17.3254 16.3439 17.2536 16.3391V8.64404H15.5283V14.3118V15.9854ZM22.4297 14.3294V12.0261L23.9997 17.9613L23.1371 21.2912C22.7797 22.4275 21.7397 23.2109 20.549 23.2409H15.5282V20.6528H13.8029V23.2409C12.8298 23.0642 12.1262 22.2111 12.1379 21.2222V19.7125H12.2932H13.5872C14.851 19.7125 16.0252 19.0602 16.6929 17.9872C16.948 18.0424 17.2082 18.0713 17.4693 18.0734H18.7633C20.8087 18.0497 22.4488 16.3748 22.4297 14.3294Z"
        fill="#fff"
      />
    </svg>